<svg fill="none" xmlns="http://www.w3.org/2000/svg" viewBox="0 0 48 56">
  <path d="M22.668.979C19.705 3.728 14.05 6.559 9.14 7.726c-2.03.5-6.05 1.02-7.727 1.02H.23l-.166 1.812c-.166 2.062 0 7.205.332 9.85.331 2.707 1.16 6.497 1.988 9.163l.746 2.394 6.92-.083c3.998-.042 6.92.021 6.92.125s-.477 1.583-1.036 3.29a250.536 250.536 0 00-1.533 4.728l-.497 1.624h20.013l-3.232-9.788h6.09c3.896 0 6.092.084 6.092.209 0 .291-1.761 4.185-2.528 5.58-2.817 5.123-7.044 10.017-11.767 13.64-1.99 1.52-4.579 3.103-4.89 2.978-.186-.062-1.243-.75-2.362-1.499-4.413-2.936-8.722-7.184-11.54-11.37l-1.387-2.04.455-.48c1.098-1.166 1.016-2.749-.186-3.79-.497-.395-.87-.52-1.678-.52-.912 0-1.119.083-1.74.708-.622.624-.705.853-.705 1.749 0 1.208.518 2.02 1.575 2.457.476.208 1.015.791 1.76 1.916 1.824 2.707 2.88 3.998 5.263 6.476 2.486 2.562 4.786 4.498 7.665 6.414 3.232 2.166 2.88 2.103 4.993.77 8.702-5.497 14.834-12.89 18.501-22.323l.788-2.02-7.397.083-7.375.063-.497-1.583-.477-1.562.933-1c3.977-4.29 3.397-10.578-1.285-13.868-2.693-1.874-6.319-2.104-9.302-.563-1.16.584-2.963 2.291-3.626 3.416-1.202 2.061-1.492 5.04-.746 7.434.477 1.562.87 2.187 2.176 3.54l.973 1-.497 1.52-.518 1.52-6.547.063-6.546.041-.518-1.707c-1.471-4.915-2.01-8.434-2.134-14.14l-.104-4.707 2.03-.124c6.65-.417 13.944-3.124 19.04-7.122l1.202-.917.6.458c6.03 4.54 12.473 7.04 19.558 7.58l2.051.167.062 2.811c.062 2.853-.228 7.206-.621 8.997-.166.79-.29 1-.622 1-.228 0-.787.353-1.222.811-.663.667-.808.958-.808 1.625 0 1.853 1.802 3.165 3.439 2.54 1.14-.437 1.802-1.478 1.678-2.665-.062-.584-.27-1.083-.6-1.416-.498-.5-.498-.521-.25-2.145.498-3.082.726-7.33.58-10.267l-.144-2.853h-1.119c-1.657 0-4.89-.395-7.003-.854-5.303-1.145-9.944-3.31-13.922-6.518C24.595.624 23.807 0 23.767 0c-.022.02-.519.458-1.099.979zm3.419 13.12c1.346.436 2.962 1.852 3.646 3.248.766 1.5.89 3.602.31 5.247-.434 1.23-1.74 2.791-3.128 3.666l-.518.333 1.948 6.018c1.077 3.311 1.989 6.143 2.05 6.268.063.208-1.325.27-6.546.27h-6.63l2.051-6.184c1.12-3.415 2.051-6.268 2.051-6.33 0-.084-.414-.396-.911-.688-1.595-.937-2.673-2.561-3.046-4.623-.538-2.957 1.368-6.164 4.351-7.268 1.057-.395 3.087-.374 4.372.042zm20.179 9.516c.373.167.849.5 1.035.77.684 1 .25 2.79-.808 3.27-1.574.729-3.19-.25-3.21-1.937 0-1 .434-1.707 1.325-2.103.808-.354.829-.354 1.658 0zM7.958 35.068c.912.396 1.45 1.458 1.264 2.458-.414 2.249-3.625 2.394-4.268.208-.331-1.083.125-2.228 1.078-2.645.87-.375 1.056-.375 1.926-.02z" fill="#151540"/>
  <path d="M21.984 15.264c-1.077.334-2.61 1.854-3.149 3.103-.621 1.479-.518 3.457.29 4.831 2.776 4.748 9.883 3.04 10.194-2.457l.062-1.27-.187 1.29c-.207 1.48-.621 2.396-1.533 3.354-1.802 1.936-4.413 2.207-6.795.687-1.306-.833-2.051-2.145-2.197-3.873-.186-2.354.912-4.27 2.963-5.227 2.797-1.312 6.215.062 7.23 2.936.187.479.311.666.311.416.042-1.02-1.512-2.853-2.983-3.56-1.14-.542-2.942-.646-4.206-.23z" fill="#EC1540"/>
  <path d="M21.715 16.41c-4.206 2.207-2.631 8.6 2.113 8.642 2.3.02 4.31-1.687 4.641-3.894.186-1.229-.331-3-1.098-3.728-.58-.541-.58-.562-.932-.146-.725.854-1.948.23-1.72-.874.104-.584.104-.583-.89-.583-.705 0-1.347.187-2.114.583z" fill="#EC1540"/>
  <path d="M22.875 15.41c-2.61.666-4.04 2.478-4.04 5.04.021 1.666.497 2.748 1.72 3.831 2.175 1.937 5.324 1.708 7.21-.52 1.864-2.187 1.533-5.581-.705-7.351-.85-.667-.746-.375.228.666 1.657 1.75 1.823 4.394.394 6.289-.912 1.187-2.217 1.812-3.73 1.833-2.838 0-4.785-1.937-4.806-4.81 0-1.167.083-1.521.622-2.396.953-1.52 2.258-2.27 4.122-2.311 1.761-.042 1.865-.063 1.057-.27-.787-.21-1.305-.21-2.072 0z" fill="#969696"/>
</svg>
